# xmcd CD database file
#
# Track frame offsets:
#	150
#	34935
#	53462
#	89412
#	112622
#	130570
#	159457
#	197395
#	229130
#	261090
#	281917
#
# Disc length: 4218 seconds
#
# Revision: 0
# Processed by: cddbd v1.5.1PL0 Copyright (c) Steve Scherf et al.
# Submitted via: CDex 1.51
#
DISCID=8610780b
DTITLE=Carol Kaye, Ray Pizzi, Mitch Holder - Thumbs Up
DYEAR=1999
DGENRE=Jazz
TTITLE0=Green Dolphin Street
TTITLE1=Thumbs Up
TTITLE2=Gentle Giant
TTITLE3=Head Start
TTITLE4=Valdez In The Country
TTITLE5=Whims Of Chambers
TTITLE6=Moorea
TTITLE7=Doxy
TTITLE8=Trials And Tribulations
TTITLE9=Freefall
TTITLE10=My Secret Love
EXTD=YEAR: 1999
EXTT0=
EXTT1=
EXTT2=
EXTT3=
EXTT4=
EXTT5=
EXTT6=
EXTT7=
EXTT8=
EXTT9=
EXTT10=
PLAYORDER=
